<svg width="30" height="40" viewBox="0 0 30 40" fill="none" xmlns="http://www.w3.org/2000/svg">
<g clip-path="url(#clip0_1_2)">
<path fill-rule="evenodd" clip-rule="evenodd" d="M30 -7.7486e-07H-1.19209e-06V30.7692H30V-7.7486e-07ZM7.5 13.3846C4.43482 13.3846 1.95 10.8361 1.95 7.69231C1.95 4.54853 4.43482 2 7.5 2C10.5652 2 13.05 4.54853 13.05 7.69231C13.05 10.8361 10.5652 13.3846 7.5 13.3846ZM30 -7.7486e-07H15V15.3846H30V-7.7486e-07Z" fill="#E42520"/>
<path d="M7.5 40C4.18629 40 1.5 37.2448 1.5 33.8462C1.5 30.4475 4.18629 27.6923 7.5 27.6923C10.8137 27.6923 13.5 30.4475 13.5 33.8462C13.5 37.2448 10.8137 40 7.5 40Z" fill="#E42520"/>
<path d="M22.5 40C19.1863 40 16.5 37.2448 16.5 33.8462C16.5 30.4475 19.1863 27.6923 22.5 27.6923C25.8137 27.6923 28.5 30.4475 28.5 33.8462C28.5 37.2448 25.8137 40 22.5 40Z" fill="#E42520"/>
<path fill-rule="evenodd" clip-rule="evenodd" d="M30 3.07692L27 -7.7486e-07H21L18 3.07692L21 15.3846H27" fill="#E42520"/>
</g>
<defs>
<clipPath id="clip0_1_2">
<rect width="30" height="40" fill="white"/>
</clipPath>
</defs>
</svg>
