<?xml version="1.0" encoding="UTF-8"?>
<svg width="100px" height="126px" viewBox="0 0 100 126" version="1.1" xmlns="http://www.w3.org/2000/svg" xmlns:xlink="http://www.w3.org/1999/xlink">
    <!-- Generator: Sketch 41 (35326) - http://www.bohemiancoding.com/sketch -->
    <title>Futtog</title>
    <desc>Created with Sketch.</desc>
    <defs></defs>
    <g id="Page-1" stroke="none" stroke-width="1" fill="none" fill-rule="evenodd">
        <g id="Futtog" fill="#E42520">
            <path d="M0,0 L100,0 L100,100 L0,100 L0,0 Z M75,45 C86.045695,45 95,36.045695 95,25 C95,13.954305 86.045695,5 75,5 C63.954305,5 55,13.954305 55,25 C55,36.045695 63.954305,45 75,45 Z M0,0 L50,0 L50,50 L0,50 L0,0 Z" id="Combined-Shape"></path>
            <circle id="backwheel" cx="75" cy="106" r="20"></circle>
            <circle id="frontwheel" cx="25" cy="106" r="20"></circle>
            <polygon id="steam" points="0 10 10 0 30 0 40 10 30 50 10 50"></polygon>
        </g>
    </g>
</svg>