<?xml version="1.0" standalone="no"?>
<!DOCTYPE svg PUBLIC "-//W3C//DTD SVG 20010904//EN"
 "http://www.w3.org/TR/2001/REC-SVG-20010904/DTD/svg10.dtd">
<svg version="1.0" xmlns="http://www.w3.org/2000/svg"
 width="645.000000pt" height="645.000000pt" viewBox="0 0 645.000000 645.000000"
 preserveAspectRatio="xMidYMid meet">
<metadata>
Created by potrace 1.11, written by Peter Selinger 2001-2013
</metadata>
<g transform="translate(0.000000,645.000000) scale(0.100000,-0.100000)"
fill="#000000" stroke="none">
<path d="M917 6194 l-256 -256 254 -1019 c140 -560 255 -1021 255 -1024 0 -3
-115 -5 -255 -5 l-255 0 0 -1280 0 -1280 150 0 c83 0 150 -3 150 -7 0 -5 -7
-33 -15 -63 -58 -217 -28 -468 81 -695 111 -230 337 -426 591 -514 234 -80
525 -63 758 45 146 67 322 219 413 356 73 112 144 277 157 371 2 12 6 42 10
67 17 112 5 274 -30 413 l-7 27 301 0 301 0 -5 -22 c-72 -316 -42 -553 104
-803 143 -247 423 -443 699 -492 68 -11 292 -10 362 2 205 37 395 138 544 288
138 139 225 296 275 492 33 131 31 334 -5 472 -8 30 -14 56 -14 58 0 3 68 5
150 5 l150 0 0 2560 0 2560 -1280 0 -1280 0 0 -1280 0 -1280 -510 0 c-402 0
-510 3 -510 13 1 6 115 467 254 1022 l254 1010 -256 258 -257 257 -511 0 -511
0 -256 -256z m3738 -89 c343 -55 666 -340 749 -660 8 -30 17 -59 19 -63 10
-15 20 -121 21 -212 3 -185 -50 -359 -159 -525 -170 -257 -451 -412 -764 -420
-261 -6 -510 95 -694 282 -94 95 -148 179 -212 328 -63 145 -79 401 -34 560
38 138 80 227 154 330 144 202 400 356 635 381 30 4 57 8 58 9 6 5 183 -3 227
-10z"/>
</g>
</svg>
